# xmcd CD database file generated by OrangeCD 5.2
#
# Track frame offsets:
#	150
#	17637
#	35937
#	46950
#	63850
#	82725
#	97575
#	117112
#	134262
#	149662
#	171075
#	185812
#	206137
#
# Disc length: 2950 seconds
#
# Revision: 0
# Processed by: cddbd v1.5.1PL0 Copyright (c) Steve Scherf et al.
# Submitted via: OrangeCD 5.2
#
DISCID=b20b840d
DTITLE=T J Dennis - My Way ... Or No Way At All
DYEAR=1996
DGENRE=Country
TTITLE0=I'm The One
TTITLE1=Hometown Girl
TTITLE2=Here To The Door
TTITLE3=Problem Child
TTITLE4=Let Go The Reins
TTITLE5=Strangest Places
TTITLE6=Last Thing He Said
TTITLE7=Footloose
TTITLE8=Gone
TTITLE9=Lonely World
TTITLE10=Crying Out
TTITLE11=Forever Tonight
TTITLE12=My Way ... Or No Way At All
EXTD=
EXTT0=
EXTT1=
EXTT2=
EXTT3=
EXTT4=
EXTT5=
EXTT6=
EXTT7=
EXTT8=
EXTT9=
EXTT10=
EXTT11=
EXTT12=
PLAYORDER=
